<mxfile host="drawio-plugin" modified="2022-10-20T22:59:29.509Z" agent="5.0 (Windows NT 6.2; Win64; x64) AppleWebKit/537.36 (KHTML, like Gecko) Chrome/98.0.4758.102 Safari/537.36" version="15.5.4" etag="A_nYyr4-RhMChRX400X5" type="embed"><diagram id="HO8h7eVq_l1Ack2c8WOz" name="Страница 1"><mxGraphModel dx="487" dy="-381" grid="1" gridSize="10" guides="1" tooltips="1" connect="1" arrows="1" fold="1" page="0" pageScale="1" pageWidth="850" pageHeight="1100" math="0" shadow="0"><root><mxCell id="0"/><mxCell id="1" parent="0"/><mxCell id="33" value="" style="group" vertex="1" connectable="0" parent="1"><mxGeometry x="500" y="900" width="780" height="780" as="geometry"/></mxCell><mxCell id="34" value="&lt;font size=&quot;3&quot;&gt;Старт&lt;/font&gt;" style="ellipse;whiteSpace=wrap;html=1;" vertex="1" parent="33"><mxGeometry x="320" width="120" height="80" as="geometry"/></mxCell><mxCell id="35" value="&lt;font style=&quot;font-size: 18px;&quot;&gt;Выбор действия usera&lt;br&gt;&lt;/font&gt;" style="rounded=0;whiteSpace=wrap;html=1;fontSize=14;" vertex="1" parent="33"><mxGeometry x="320" y="220" width="120" height="60" as="geometry"/></mxCell><mxCell id="36" style="edgeStyle=orthogonalEdgeStyle;rounded=0;orthogonalLoop=1;jettySize=auto;html=1;entryX=0.5;entryY=0;entryDx=0;entryDy=0;fontSize=18;" edge="1" parent="33" source="37" target="35"><mxGeometry relative="1" as="geometry"/></mxCell><mxCell id="37" value="&lt;div&gt;&lt;font style=&quot;font-size: 18px;&quot;&gt;Главное меню&lt;/font&gt;&lt;/div&gt;" style="rounded=0;whiteSpace=wrap;html=1;fontSize=14;" vertex="1" parent="33"><mxGeometry x="320" y="120" width="120" height="60" as="geometry"/></mxCell><mxCell id="38" style="edgeStyle=orthogonalEdgeStyle;rounded=0;orthogonalLoop=1;jettySize=auto;html=1;entryX=0.5;entryY=0;entryDx=0;entryDy=0;fontSize=18;" edge="1" parent="33" source="34" target="37"><mxGeometry relative="1" as="geometry"/></mxCell><mxCell id="39" value="Просмотр контактов" style="rounded=0;whiteSpace=wrap;html=1;fontSize=18;" vertex="1" parent="33"><mxGeometry x="20" y="320" width="120" height="60" as="geometry"/></mxCell><mxCell id="40" style="edgeStyle=orthogonalEdgeStyle;rounded=0;orthogonalLoop=1;jettySize=auto;html=1;entryX=0.5;entryY=0;entryDx=0;entryDy=0;fontSize=18;" edge="1" parent="33" source="35" target="39"><mxGeometry relative="1" as="geometry"><Array as="points"><mxPoint x="380" y="300"/><mxPoint x="80" y="300"/></Array></mxGeometry></mxCell><mxCell id="41" value="Добавить контакт" style="rounded=0;whiteSpace=wrap;html=1;fontSize=18;" vertex="1" parent="33"><mxGeometry x="180" y="320" width="120" height="60" as="geometry"/></mxCell><mxCell id="42" value="Найти контакт" style="rounded=0;whiteSpace=wrap;html=1;fontSize=18;" vertex="1" parent="33"><mxGeometry x="460" y="320" width="120" height="60" as="geometry"/></mxCell><mxCell id="43" value="Выход" style="rounded=0;whiteSpace=wrap;html=1;fontSize=18;" vertex="1" parent="33"><mxGeometry x="620" y="320" width="120" height="60" as="geometry"/></mxCell><mxCell id="44" style="edgeStyle=orthogonalEdgeStyle;rounded=0;orthogonalLoop=1;jettySize=auto;html=1;fontSize=18;" edge="1" parent="33" source="35" target="43"><mxGeometry relative="1" as="geometry"><Array as="points"><mxPoint x="380" y="300"/><mxPoint x="680" y="300"/></Array></mxGeometry></mxCell><mxCell id="45" value="Вывод log из file.csv" style="rounded=0;whiteSpace=wrap;html=1;fontSize=18;" vertex="1" parent="33"><mxGeometry x="20" y="420" width="120" height="60" as="geometry"/></mxCell><mxCell id="46" style="edgeStyle=orthogonalEdgeStyle;rounded=0;orthogonalLoop=1;jettySize=auto;html=1;entryX=0.5;entryY=0;entryDx=0;entryDy=0;fontSize=18;" edge="1" parent="33" source="39" target="45"><mxGeometry relative="1" as="geometry"/></mxCell><mxCell id="47" style="edgeStyle=orthogonalEdgeStyle;rounded=0;orthogonalLoop=1;jettySize=auto;html=1;entryX=0.5;entryY=0;entryDx=0;entryDy=0;fontSize=18;" edge="1" parent="33" target="51"><mxGeometry relative="1" as="geometry"><mxPoint x="240" y="530" as="sourcePoint"/></mxGeometry></mxCell><mxCell id="48" value="&lt;div&gt;Ввод Имя&lt;/div&gt;&lt;div&gt;Ввод Фамилия&lt;/div&gt;&lt;div&gt;Ввод телефон&lt;/div&gt;&lt;div&gt;Ввод описание&lt;br&gt;&lt;/div&gt;" style="rounded=0;whiteSpace=wrap;html=1;fontSize=18;" vertex="1" parent="33"><mxGeometry x="180" y="420" width="130" height="110" as="geometry"/></mxCell><mxCell id="49" value="Ввод Имя контакта" style="rounded=0;whiteSpace=wrap;html=1;fontSize=18;" vertex="1" parent="33"><mxGeometry x="460" y="420" width="120" height="60" as="geometry"/></mxCell><mxCell id="50" style="edgeStyle=orthogonalEdgeStyle;rounded=0;orthogonalLoop=1;jettySize=auto;html=1;entryX=0.5;entryY=0;entryDx=0;entryDy=0;fontSize=18;" edge="1" parent="33" source="42" target="49"><mxGeometry relative="1" as="geometry"/></mxCell><mxCell id="51" value="Создание контакта" style="rounded=0;whiteSpace=wrap;html=1;fontSize=18;" vertex="1" parent="33"><mxGeometry x="180" y="580" width="120" height="60" as="geometry"/></mxCell><mxCell id="52" style="edgeStyle=orthogonalEdgeStyle;rounded=0;orthogonalLoop=1;jettySize=auto;html=1;fontSize=18;" edge="1" parent="33" source="53"><mxGeometry relative="1" as="geometry"><mxPoint x="380" y="720" as="targetPoint"/><Array as="points"><mxPoint x="520" y="680"/><mxPoint x="380" y="680"/></Array></mxGeometry></mxCell><mxCell id="53" value="Вывод контакта" style="rounded=0;whiteSpace=wrap;html=1;fontSize=18;" vertex="1" parent="33"><mxGeometry x="460" y="520" width="120" height="60" as="geometry"/></mxCell><mxCell id="54" style="edgeStyle=orthogonalEdgeStyle;rounded=0;orthogonalLoop=1;jettySize=auto;html=1;entryX=0.5;entryY=0;entryDx=0;entryDy=0;fontSize=18;" edge="1" parent="33" source="49" target="53"><mxGeometry relative="1" as="geometry"/></mxCell><mxCell id="55" style="edgeStyle=orthogonalEdgeStyle;rounded=0;orthogonalLoop=1;jettySize=auto;html=1;entryX=0;entryY=0.5;entryDx=0;entryDy=0;fontSize=18;" edge="1" parent="33" source="56" target="37"><mxGeometry relative="1" as="geometry"><Array as="points"><mxPoint y="750"/><mxPoint y="150"/></Array></mxGeometry></mxCell><mxCell id="56" value="&lt;div&gt;Закончить действие&lt;br&gt;&lt;/div&gt;&lt;div&gt;Enter&lt;/div&gt;" style="rounded=0;whiteSpace=wrap;html=1;fontSize=18;" vertex="1" parent="33"><mxGeometry x="320" y="720" width="120" height="60" as="geometry"/></mxCell><mxCell id="57" style="edgeStyle=orthogonalEdgeStyle;rounded=0;orthogonalLoop=1;jettySize=auto;html=1;fontSize=18;" edge="1" parent="33" source="45" target="56"><mxGeometry relative="1" as="geometry"><Array as="points"><mxPoint x="80" y="680"/><mxPoint x="380" y="680"/></Array></mxGeometry></mxCell><mxCell id="58" style="edgeStyle=orthogonalEdgeStyle;rounded=0;orthogonalLoop=1;jettySize=auto;html=1;entryX=1;entryY=0.5;entryDx=0;entryDy=0;fontSize=18;" edge="1" parent="33" source="59" target="37"><mxGeometry relative="1" as="geometry"><Array as="points"><mxPoint x="780" y="450"/><mxPoint x="780" y="150"/></Array></mxGeometry></mxCell><mxCell id="59" value="Запись log в file.csv" style="rounded=0;whiteSpace=wrap;html=1;fontSize=18;" vertex="1" parent="33"><mxGeometry x="620" y="420" width="120" height="60" as="geometry"/></mxCell><mxCell id="60" style="edgeStyle=orthogonalEdgeStyle;rounded=0;orthogonalLoop=1;jettySize=auto;html=1;entryX=0.5;entryY=0;entryDx=0;entryDy=0;fontSize=18;" edge="1" parent="33" source="43" target="59"><mxGeometry relative="1" as="geometry"/></mxCell><mxCell id="61" value="" style="endArrow=classic;html=1;rounded=0;fontSize=18;" edge="1" parent="33" target="41"><mxGeometry width="50" height="50" relative="1" as="geometry"><mxPoint x="240" y="300" as="sourcePoint"/><mxPoint x="420" y="450" as="targetPoint"/></mxGeometry></mxCell><mxCell id="62" value="" style="endArrow=classic;html=1;rounded=0;fontSize=18;entryX=0.5;entryY=0;entryDx=0;entryDy=0;" edge="1" parent="33" target="42"><mxGeometry width="50" height="50" relative="1" as="geometry"><mxPoint x="520" y="300" as="sourcePoint"/><mxPoint x="530" y="320" as="targetPoint"/></mxGeometry></mxCell><mxCell id="63" value="" style="endArrow=classic;html=1;rounded=0;fontSize=18;entryX=0.446;entryY=0.018;entryDx=0;entryDy=0;entryPerimeter=0;" edge="1" parent="33" target="48"><mxGeometry width="50" height="50" relative="1" as="geometry"><mxPoint x="238" y="380" as="sourcePoint"/><mxPoint x="170" y="540" as="targetPoint"/></mxGeometry></mxCell><mxCell id="64" value="" style="endArrow=none;html=1;rounded=0;fontSize=18;entryX=0.5;entryY=1;entryDx=0;entryDy=0;" edge="1" parent="33" target="51"><mxGeometry width="50" height="50" relative="1" as="geometry"><mxPoint x="240" y="680" as="sourcePoint"/><mxPoint x="420" y="420" as="targetPoint"/></mxGeometry></mxCell></root></mxGraphModel></diagram></mxfile>